<?xml version="1.0" encoding="utf-8"?>
<!-- Generator: Adobe Illustrator 23.0.3, SVG Export Plug-In . SVG Version: 6.00 Build 0)  -->
<svg version="1.1" id="Layer_1" xmlns="http://www.w3.org/2000/svg" xmlns:xlink="http://www.w3.org/1999/xlink" x="0px" y="0px"
	 viewBox="0 0 622.3 153.5" style="enable-background:new 0 0 622.3 153.5;" xml:space="preserve">
<style type="text/css">
	.st0{fill:#FFFFFF;}
	.st1{fill:#FFFFFF;stroke:#FFFFFF;stroke-width:0.3;stroke-miterlimit:10;}
</style>
<g>
	<path class="st0" d="M116.7,30c-0.5,0.2-1.7,0.4-3.2,0.3c-4.3-0.3-6.4-3.1-6.1-6.6c0.3-4.2,3.4-6.4,7.2-6.2c1.5,0.1,2.5,0.4,3,0.7
		l-0.7,2.2c-0.5-0.3-1.3-0.5-2.3-0.6c-2.2-0.1-4,1.1-4.2,3.9c-0.1,2.5,1.2,4.1,3.7,4.3c0.9,0.1,1.8-0.1,2.4-0.3L116.7,30z"/>
	<path class="st0" d="M129.2,30.7l-2.1,2.6l-2.6-1.2l8.5-9.8l3.4,1.5l-1.5,12.9l-2.8-1.2l0.4-3.3L129.2,30.7z M132.9,30.1l0.4-2.7
		c0.1-0.8,0.3-1.7,0.4-2.4l0,0c-0.5,0.6-1,1.4-1.5,2l-1.8,2.1L132.9,30.1z"/>
	<path class="st0" d="M150.2,32.9c0.8,0.5,1.8,1.4,2.9,2.4c1.3,1.3,2,2.4,2.2,3.5c0.1,1-0.2,1.9-1,2.7c-1.1,1.1-2.7,1.1-3.7,0.6l0,0
		c0.4,0.9,0.1,1.8-0.4,2.8c-0.7,1.3-1.6,2.7-1.8,3.2l-2.1-2c0.1-0.4,0.6-1.3,1.4-2.7c0.8-1.4,0.7-2-0.1-2.9l-0.6-0.6l-3.4,3.5l-2-2
		L150.2,32.9z M148.4,38.6l0.8,0.8c1,1,2.1,1.1,2.9,0.3c0.8-0.8,0.6-1.8-0.3-2.7c-0.5-0.5-0.8-0.7-1-0.8L148.4,38.6z"/>
	<path class="st0" d="M169.5,62c0.4,0.8,0.8,2.1,1.1,3.6c0.4,1.8,0.5,3.1,0,4.1c-0.4,0.9-1.2,1.5-2.3,1.8c-1.5,0.4-2.9-0.5-3.5-1.4
		l-0.1,0c-0.1,0.9-0.8,1.6-1.8,2.2c-1.3,0.7-2.8,1.5-3.2,1.8l-0.7-2.8c0.3-0.3,1.2-0.8,2.6-1.5c1.4-0.7,1.7-1.3,1.4-2.5l-0.2-0.8
		l-4.8,1.2l-0.7-2.7L169.5,62z M165,66l0.3,1.1c0.3,1.4,1.2,2,2.3,1.7c1.1-0.3,1.5-1.2,1.2-2.4c-0.2-0.7-0.3-1-0.4-1.2L165,66z"/>
	<path class="st0" d="M164.7,90.3l0.4-4.6l-2.9-0.3l-0.5,5.1l-2.3-0.2l0.7-7.9l12.4,1.1l-0.7,7.6l-2.3-0.2l0.4-4.8l-2.6-0.2
		l-0.4,4.6L164.7,90.3z"/>
	<path class="st0" d="M157.3,98.7l11.2,5.4l-1.4,3l-5.2,0.4c-1.5,0.1-3.2,0.1-4.7,0l0,0c1.6,0.6,3.1,1.2,4.8,2l3.3,1.6l-1.1,2.3
		l-11.2-5.4l1.3-2.7l5.5-0.3c1.5-0.1,3.3-0.2,4.9-0.1l0-0.1c-1.5-0.6-3.1-1.4-5-2.2l-3.4-1.6L157.3,98.7z"/>
	<path class="st0" d="M152.7,124.3l2.4-2.4l1.7,1.7l-6.8,6.7l-1.7-1.7l2.4-2.4l-7.1-7.2l2-2L152.7,124.3z"/>
	<path class="st0" d="M134.2,129.6l-0.6-3.3l2.6-1.3l2,12.9l-3.3,1.6L126,130l2.7-1.3l2.3,2.5L134.2,129.6z M132.3,132.9l1.9,2
		c0.5,0.6,1.1,1.3,1.6,1.9l0,0c-0.2-0.7-0.4-1.7-0.5-2.4l-0.5-2.7L132.3,132.9z"/>
	<path class="st0" d="M119.1,144.4l-2.8,0.3l-1.1-10l-4.9,0.5l-0.3-2.4l7.7-0.8L119.1,144.4z"/>
</g>
<g>
	<path class="st0" d="M202.4,62.8h14.8v6.8h-5.9V76h5.5v6.5h-5.5V90h6.5v6.8h-15.4V62.8z"/>
	<path class="st0" d="M249.2,62.8v34h-7.8l-4.6-15.5v15.5h-7.4v-34h7.4l5,15.3V62.8H249.2z"/>
	<path class="st0" d="M280.7,62.8v6.8h-5.3v27.2h-8.9V69.6h-5.2v-6.8H280.7z"/>
	<path class="st0" d="M306.3,62.8l5.1,34h-9l-0.5-6.1h-3.2l-0.5,6.1H289l4.5-34H306.3z M301.6,84.6c-0.4-3.9-0.9-8.6-1.3-14.3
		c-0.9,6.5-1.5,11.3-1.7,14.3H301.6z"/>
	<path class="st0" d="M344.1,62.8L339,78.1l5.6,18.7h-9.1l-3.6-14.6v14.6H323v-34h8.9V76l3.9-13.2H344.1z"/>
	<path class="st0" d="M365,62.8V90h5.4v6.8h-14.2v-34H365z"/>
	<path class="st0" d="M398.7,62.8l-6.5,21.7v12.3h-8.2V84.5l-6.2-21.7h8.1c1.3,6.6,2,11.1,2.2,13.4c0.5-3.6,1.3-8.1,2.5-13.4H398.7z
		"/>
</g>
<g>
	<path class="st0" d="M451.5,62.8v34h-7.7l0-23l-3.1,23h-5.5L432,74.3l0,22.5h-7.7v-34h11.5c0.3,2,0.7,4.5,1,7.2l1.3,8.7l2-15.9
		H451.5z"/>
	<path class="st0" d="M484.4,82.7c0,3.4-0.1,5.8-0.2,7.3c-0.2,1.4-0.7,2.7-1.5,3.9c-0.8,1.2-2,2.1-3.4,2.7c-1.4,0.6-3.1,0.9-5,0.9
		c-1.8,0-3.5-0.3-4.9-0.9c-1.5-0.6-2.6-1.5-3.5-2.7c-0.9-1.2-1.4-2.5-1.6-3.9c-0.2-1.4-0.3-3.9-0.3-7.4v-5.8c0-3.4,0.1-5.8,0.2-7.3
		c0.2-1.4,0.7-2.7,1.5-3.9c0.8-1.2,2-2.1,3.4-2.7c1.4-0.6,3.1-0.9,5-0.9c1.8,0,3.5,0.3,4.9,0.9c1.5,0.6,2.6,1.5,3.5,2.7
		c0.9,1.2,1.4,2.5,1.6,3.9c0.2,1.4,0.3,3.9,0.3,7.4V82.7z M475.6,71.5c0-1.6-0.1-2.6-0.3-3c-0.2-0.4-0.5-0.7-1.1-0.7
		c-0.5,0-0.8,0.2-1.1,0.5c-0.2,0.4-0.4,1.4-0.4,3.2v15.9c0,2,0.1,3.2,0.2,3.7c0.2,0.5,0.5,0.7,1.1,0.7c0.6,0,1-0.3,1.2-0.8
		c0.2-0.5,0.3-1.8,0.3-3.8V71.5z"/>
	<path class="st0" d="M515.6,62.8v6.8h-5.3v27.2h-8.9V69.6h-5.2v-6.8H515.6z"/>
	<path class="st0" d="M548,82.7c0,3.4-0.1,5.8-0.2,7.3c-0.2,1.4-0.7,2.7-1.5,3.9c-0.8,1.2-2,2.1-3.4,2.7c-1.4,0.6-3.1,0.9-5,0.9
		c-1.8,0-3.5-0.3-4.9-0.9c-1.5-0.6-2.6-1.5-3.5-2.7c-0.9-1.2-1.4-2.5-1.6-3.9c-0.2-1.4-0.3-3.9-0.3-7.4v-5.8c0-3.4,0.1-5.8,0.2-7.3
		c0.2-1.4,0.7-2.7,1.5-3.9c0.8-1.2,2-2.1,3.4-2.7c1.4-0.6,3.1-0.9,5-0.9c1.8,0,3.5,0.3,4.9,0.9c1.5,0.6,2.6,1.5,3.5,2.7
		c0.9,1.2,1.4,2.5,1.6,3.9c0.2,1.4,0.3,3.9,0.3,7.4V82.7z M539.1,71.5c0-1.6-0.1-2.6-0.3-3c-0.2-0.4-0.5-0.7-1.1-0.7
		c-0.5,0-0.8,0.2-1.1,0.5c-0.2,0.4-0.4,1.4-0.4,3.2v15.9c0,2,0.1,3.2,0.2,3.7c0.2,0.5,0.5,0.7,1.1,0.7c0.6,0,1-0.3,1.2-0.8
		c0.2-0.5,0.3-1.8,0.3-3.8V71.5z"/>
	<path class="st0" d="M561.4,62.8h6.3c4.2,0,7,0.2,8.5,0.5c1.5,0.3,2.7,1.1,3.6,2.5c0.9,1.3,1.4,3.4,1.4,6.3c0,2.6-0.3,4.4-1,5.3
		c-0.7,0.9-2,1.5-3.9,1.6c1.8,0.4,2.9,1,3.5,1.7c0.6,0.7,1,1.4,1.1,2c0.1,0.6,0.2,2.3,0.2,5v9h-8.2V85.5c0-1.8-0.1-2.9-0.4-3.4
		c-0.3-0.4-1-0.7-2.3-0.7v15.4h-8.9V62.8z M570.2,68.6v7.6c1,0,1.7-0.1,2.1-0.4c0.4-0.3,0.6-1.2,0.6-2.7v-1.9c0-1.1-0.2-1.8-0.6-2.1
		C571.9,68.8,571.2,68.6,570.2,68.6z"/>
	<path class="st0" d="M613.4,73.1h-8.2v-2.5c0-1.2-0.1-1.9-0.3-2.3c-0.2-0.3-0.6-0.5-1.1-0.5c-0.5,0-0.9,0.2-1.2,0.7
		c-0.3,0.4-0.4,1.1-0.4,2c0,1.1,0.2,2,0.5,2.6c0.3,0.6,1.1,1.3,2.5,2.1c3.9,2.3,6.4,4.3,7.4,5.8c1,1.5,1.5,3.9,1.5,7.3
		c0,2.4-0.3,4.2-0.9,5.4c-0.6,1.1-1.7,2.1-3.3,2.9c-1.6,0.8-3.5,1.2-5.7,1.2c-2.4,0-4.4-0.5-6.1-1.3c-1.7-0.9-2.8-2-3.3-3.4
		c-0.5-1.4-0.8-3.4-0.8-5.9v-2.2h8.2v4.1c0,1.3,0.1,2.1,0.3,2.5c0.2,0.4,0.6,0.5,1.2,0.5c0.6,0,1-0.2,1.3-0.7
		c0.3-0.5,0.4-1.1,0.4-2.1c0-2-0.3-3.3-0.8-3.9c-0.6-0.6-1.9-1.6-4.1-3.1c-2.2-1.5-3.7-2.5-4.4-3.2c-0.7-0.7-1.3-1.6-1.8-2.7
		c-0.5-1.2-0.7-2.6-0.7-4.5c0-2.6,0.3-4.5,1-5.7c0.7-1.2,1.7-2.1,3.2-2.8c1.5-0.7,3.3-1,5.4-1c2.3,0,4.3,0.4,5.9,1.1
		c1.6,0.7,2.7,1.7,3.2,2.8c0.5,1.1,0.8,3,0.8,5.8V73.1z"/>
</g>
<g id="ILtCVH_1_">
	<g>
		<path class="st1" d="M99,123.8c-0.2,0-0.4-0.1-0.6-0.1c-9.6-0.1-19.1-0.2-28.7-0.2c-1,0-1.9,0.1-3,0.1c0,0.4,0,0.7,0,1
			c-0.1,0.8,0,1.7-0.2,2.5c-0.4,1.6-1.1,2.1-2.7,2c-2.5-0.2-5-0.4-7.5-0.6c-6-0.5-12-1-18-1.5c-5.3-0.4-10.7-0.8-16-1.3
			c-0.5,0-1-0.1-1.6-0.1c0.2,1.5-0.4,2.9,0.4,4.2c0.7,1.3,2,1.6,3.3,1.8c7.1,0.8,14.1,1.7,21.2,2.4c8,0.8,16.1,1.4,24.1,1.9
			c9.8,0.6,19.6,0.6,29.4,0.3c0,0.1,0,0.2,0,0.3c-13.7,0.3-27.4,0.2-41.1-1.1c-10.4-0.9-20.7-2.1-31-3.2c-2.2-0.2-4.5,0-6.2-2.1
			c0.1,2.2,0.3,4.3,0.6,6.3c0,0.2,0.4,0.5,0.7,0.5c3.1,0.5,6.2,0.9,9.4,1.3c0.4,0.1,0.9,0,1.3-0.2c1-0.6,2.1-0.7,3.2-0.7
			c4.3,0.3,8.6,0.6,12.9,0.8c11.4,0.5,22.7,1,34.1,1.5c5.4,0.2,10.8,0.4,16.2,0.7c0,0.1,0,0.2,0,0.3c-1.8-0.1-3.7-0.2-5.5-0.3
			c-7.9-0.3-15.9-0.6-23.8-0.9c-8.8-0.4-17.6-0.8-26.4-1.3c-2.5-0.1-4.9-0.3-7.3-0.5c-0.2,0-0.4,0-0.6,0c-1.9,0-2.1,0.2-2.1,2.1
			c0,0.7,0,1.5-0.1,2.2c-0.3,2.2-1.6,3.5-3.7,3.9c-0.7,0.1-1.3,0.3-2,0.3c-3.8-0.2-7.7-0.4-11.5-0.6c-1.6-0.1-2.8-1-3.3-2.6
			c-0.6-2.1-1.2-4.3-1.4-6.5c-0.7-6.4-1-12.8-0.9-19.2c0.1-5.7-0.2-11.5-0.2-17.2c-0.1-9,0.3-17.9,1.8-26.8c0.5-2.8,1.1-5.5,2.2-8.1
			c1.7-4.1,4.5-6.6,8.9-7.5c2-0.4,3.9-1,5.9-1.6c1.4-0.4,2.3-1.3,1.9-3c-0.1-0.4,0-0.8,0-1.3c0-1-0.2-1.2-1.2-1.3
			c-1.6-0.1-3.1-0.3-4.6-0.5c-0.6-0.1-1.1-0.3-1.6-0.6c-0.9-0.4-1.3-1.1-1.4-2c-0.2-2.2,0.5-4.1,1.9-5.7c0.4-0.5,1.1-1,1.7-1.1
			c2.2-0.5,4.4-0.8,6.6-1.2c0.2,0,0.3,0,0.5,0c2.1,0,2.8,0.7,2.7,2.8c0,1.7-0.1,3.4-0.2,5.1c0,0.2,0,0.4,0.1,0.6
			c0.1-0.3,0.3-0.7,0.4-1c3.3-8.2,7.5-15.9,12.3-23.3c1.4-2.2,3.4-3.6,5.9-3.9c4.1-0.6,8.2-1.3,12.3-1.8c5.4-0.6,10.9-1.1,16.3-1.4
			c5.3-0.4,10.6-0.2,15.9,0.4c0.2,0,0.4,0.1,0.7,0.1c0,0.1,0,0.2,0,0.3c-1.3-0.2-2.6-0.4-3.9-0.5c-6.1-0.4-12.3-0.4-18.4,0.2
			c-6.5,0.7-13,1.4-19.5,2.2c-1.5,0.2-3.1,0.6-4.6,0.9c-1.6,0.4-2.9,1.2-3.8,2.6c-2.1,3.3-4.2,6.5-6.1,9.9c-3.2,5.4-5.7,11.1-8,16.9
			C34.5,50,34.2,50.5,34,51c-0.7,1.5-0.5,2.6,0.7,3.8c0.2,0.2,0.4,0.3,0.7,0.6c-1.1-0.3-1.1-0.3-2.3-2.5c0,0-0.1,0-0.1,0.1
			c-1.9,2.8-4.6,4-7.8,4.6c-1.1,0.2-2.2,0.5-3.3,0.7c-3.5,0.8-5.8,3-7.3,6.2c-1.4,3.1-2.1,6.4-2.7,9.7c-1.7,11-1.7,22.1-1.5,33.2
			c0.1,4.4,0.1,8.8,1.2,13.1c1,3.9,1.9,7.9,2.9,11.9c0,0.2,0.1,0.4,0.2,0.6c0.9,3.1,3,4.4,6.3,3.8c-0.1-1.3-0.4-2.6-0.4-3.9
			c0-4.3,0.1-8.7,0.2-13c0.1-2.9,0.1-5.7,0.3-8.6c0.1-2,0.4-4.1,0.8-6.1c0.4-2,1.8-3.3,4-3.3c2.6-0.1,5.2-0.1,7.8,0.1
			c4.4,0.2,8.7,0.6,13.1,0.7c5.2,0.2,10.3,0.3,15.5,0.4c0.2,0,0.5,0,0.8,0c0-0.3,0.1-0.5,0-0.8c-0.5-10.6-0.6-21.3-0.3-32
			c0-1.7-0.2-3.4-0.3-5.1c0-0.5-0.4-0.8-0.9-1c-2-0.6-4-1.3-5.9-2.1c2.1,0.6,4.1,1.2,6.2,1.9c0.1-0.1,0.1-0.1,0.2-0.2
			c-0.5-0.4-0.9-1-1.5-1.3c-0.8-0.5-1.7-0.8-2.6-1.1c-7.1-2.5-14.3-5.1-21.4-7.6c-2.4-0.8-2.6-1.7-1-3.6c2.4-2.8,3.8-6.1,5.2-9.5
			c2.1-5,4.4-9.9,7.4-14.4c1.2-1.8,2.8-3,5-3.1c7.9-0.6,15.8-1.5,23.7-1.9c7.4-0.4,14.8-0.4,22.2-0.5c0,0.1,0,0.2,0,0.3
			c-7.9-0.2-15.8,0-23.7,0.6c-7.4,0.6-14.9,1.3-22.3,1.9c-1.9,0.2-3.2,1.1-4.3,2.6c-2.9,4.3-5.1,8.9-7.2,13.6
			c-1.2,2.8-2.6,5.6-4,8.3c-0.5,1-1.4,1.9-2.1,2.9c-0.8,1.2-0.7,1.8,0.6,2.3c2.3,0.9,4.6,1.8,6.9,2.6c5.2,1.8,10.5,3.6,15.7,5.5
			c0.5,0.2,1.1,0.3,1.5,0.6c1,0.7,2,0.6,3,0.4c1.9-0.2,3.9-0.4,5.8-0.5c-2.4,0.3-4.7,0.6-7.2,1c1.9,2.6,1.6,5.5,1.5,8.3
			c-0.3,10.6-0.2,21.1,0.3,31.7c0.1,1.8,0.2,3.6,0.2,5.4c0,0.7,0.2,1,1,1c11.4,0.1,22.9,0.2,34.3,0.3c0,0.1,0,0.2,0,0.3
			c-11.1-0.1-22.2-0.2-33.3-0.3c0,0.3,0,0.5,0,0.7c0,2.8,0.1,5.7,0.1,8.5c0.1,2.6,0.4,3,3,3.1c9.7,0.2,19.3,0.3,29,0.5
			c0.4,0,0.8-0.1,1.2-0.1c0,0.1,0,0.2,0,0.3c-0.3,0-0.6,0-0.8,0c-6.7-0.1-13.3-0.1-20-0.2c-3.4-0.1-6.9-0.2-10.3-0.3
			c-1.8-0.1-2.3-0.7-2.4-2.6c-0.1-3-0.1-6-0.1-9c0-0.3,0-0.6,0-1c-0.5,0-1,0-1.4,0c0,0.1-0.1,0.2-0.1,0.3c0.1,4.3,0.3,8.5,0.4,12.8
			c0,0.7,0.4,0.9,1,0.8c2.2-0.1,4.5-0.3,6.7-0.3c5.6,0,11.2,0.1,16.8,0.2c3.4,0,6.9,0.1,10.3,0.2C99,123.5,99,123.6,99,123.8z
			 M21.2,118.8c14.2,1.9,28.4,2.9,42.6,3.1c0-0.2,0.1-0.3,0.1-0.4c-0.2-5.8-0.4-11.6-0.6-17.5c0-0.5-0.2-0.7-0.7-0.7
			c-2.2,0-4.4-0.1-6.6-0.1c-0.2,0-0.4,0-0.7,0.1c0,0.3-0.1,0.5-0.1,0.7c-0.1,2-0.4,2.4-2.4,2.4c-2.6,0-5.2,0-7.8-0.1
			c-6.7-0.3-13.4-0.6-20.1-0.9c-3.1-0.1-3.2-0.1-3.4,3.1c-0.2,3.1-0.2,6.1-0.3,9.2C21.2,118,21.2,118.3,21.2,118.8z M20.8,124.3
			c1.8,0.2,3.4,0.4,5,0.5c8.8,0.7,17.7,1.5,26.5,2.2c3.4,0.3,6.8,0.4,10.3,0.6c0.7,0,1-0.3,1.2-0.9c0.4-1.5,0.3-3,0-4.5
			c-14.3-0.3-28.5-1.3-42.7-3.1C21,120.8,20.9,122.5,20.8,124.3z M32.9,138.7c-1-0.1-1.9-0.3-2.8-0.4c-3.4-0.4-6.8-0.9-10.2-1.1
			c-3.2-0.2-4.6-1.1-5.5-4.2c-0.2-0.5-0.3-1.1-0.4-1.6c-1.1-4.5-2.1-8.9-3.2-13.4c-0.1,0-0.1,0-0.2,0c0,0.8,0,1.5,0,2.3
			c0.3,4.9,0.4,9.9,0.8,14.8c0.2,2.4,0.7,4.7,1.3,7.1c0.4,2,1.8,3.1,3.9,3.2c3.3,0.2,6.7,0.4,10,0.5c1.2,0,2.4-0.3,3.5-0.5
			c1-0.2,1.8-0.8,2.3-1.8C33.1,141.9,33.1,140.2,32.9,138.7z M31.1,54.5c0.4-0.5,0.8-0.7,1-1.1c0.8-1.4,1.6-2.8,2.4-4.2
			c0.1-0.1,0.1-0.3,0.1-0.5c0.1-2.2,0.3-4.5,0.3-6.7c0.1-2.1-0.5-2.7-2.6-2.5c-2.3,0.2-4.7,0.7-7,1.2c-1,0.2-1.6,0.9-2,1.8
			c-0.4,0.7-0.7,1.5-0.9,2.2c-0.9,3,0,4.4,3.1,4.9c1.3,0.2,2.5,0.3,3.8,0.3c1.5,0.1,1.8,0.4,1.8,1.9C31.1,52.7,31.1,53.5,31.1,54.5z
			 M54.8,103.2c-0.4,0-0.7,0-1,0c-5.1-0.2-10.1-0.4-15.2-0.6c-2.9-0.1-5.7-0.5-8.6-0.6c-1.7,0-3.5,0.1-5.2,0.4
			c-1.3,0.2-2,1.2-2.4,2.6c0.5,0,0.8,0,1.2,0c5.1,0.2,10.2,0.4,15.4,0.6c4.6,0.2,9.1,0.3,13.7,0.4c2.1,0,2.4-0.4,2.3-2.5
			C54.9,103.4,54.8,103.4,54.8,103.2z M64.5,123.8c-0.2,1.1-0.3,2.1-0.5,3c-0.2,0.8-0.7,1.1-1.5,1c-2.3-0.2-4.6-0.3-6.8-0.5
			c-6.2-0.4-12.5-0.8-18.7-1.3c-5.2-0.4-10.4-1-15.6-1.5c-0.2,0-0.4,0.2-0.6,0.3c0.2,0.1,0.4,0.3,0.6,0.3c7,0.6,14.1,1.1,21.1,1.7
			c4.6,0.4,9.2,0.7,13.8,1.1c2.6,0.2,5.1,0.5,7.7,0.7c0.8,0.1,1.7,0,2.1-0.9c0.6-1.3,0.7-2.7,0.4-4.2
			C65.7,123.7,65.1,123.8,64.5,123.8z"/>
		<path class="st1" d="M99,106.9c-2.4,0-4.8,0-7.2-0.1c-7.6-0.2-15.3-0.4-22.9-0.6c-2.2-0.1-2.8-0.4-3.1-2.6
			c-0.2-1.3-0.1-2.6-0.1-3.8c0-5,0-10,0-15.1c0-4.1,0.1-8.3,0.2-12.4c0-1.4,0.3-1.7,1.7-1.8c1.5-0.1,2.9-0.3,4.4-0.3
			c8.8-0.2,17.6-0.3,26.4-0.4c0.2,0,0.3,0,0.5,0c0,0.1,0,0.2,0,0.3c-1.1-0.2-1.1-0.2-1.2,0.9c0,1.2-0.1,2.4-0.1,3.6
			c-0.1,10.3-0.1,20.6-0.2,30.9c0,0.3,0,0.6,0.1,1c0.5,0.1,1,0.1,1.4,0.1C99,106.7,99,106.8,99,106.9z M97.1,106.5
			c0.1-12.2,0.2-24.2,0.3-36.3c-0.8,0-1.6,0-2.5,0c-0.5,12.1-0.7,24.2-0.4,36.3C95.4,106.5,96.3,106.5,97.1,106.5z M69.5,70.7
			c-0.7,5.2-0.6,31.8,0.2,35.2c0.8,0,1.6,0,2.4,0c0-11.8,0-23.5,0-35.3C71.2,70.6,70.4,70.6,69.5,70.7z M69.1,105.8
			c-0.2-5.9-0.4-11.7-0.4-17.5c0-5.8,0.2-11.7,0.3-17.6c-0.6,0.1-1.2,0.2-1.8,0.3c-0.6,0.1-0.9,0.5-0.9,1.1
			c-0.1,4.2-0.2,8.3-0.2,12.5c-0.1,5.4-0.1,10.8-0.1,16.2c0,1,0,2,0.2,3C66.5,105.7,67.1,106,69.1,105.8z M78,70.4
			c-0.6,0-1.2,0-1.8,0c-0.7,0-0.9,0.2-0.9,0.9c-0.1,6.5-0.3,12.9-0.3,19.4c0,4.8,0.3,9.7,0.5,14.5c0,0.3-0.1,0.8,0.5,0.8
			c0.5,0,1.1,0,1.6,0C77.6,94.1,77.8,82.3,78,70.4z M91.9,70.2c-0.5,12.1-0.6,24.2-0.2,36.3c0.9,0,1.6,0,2.3,0
			c0.1-12.1,0.3-24.2,0.4-36.3C93.6,70.2,92.8,70.2,91.9,70.2z M83.8,70.3c-0.5,12-0.6,23.9-0.2,35.9c0.8,0,1.6,0,2.2,0
			c0.1-12,0.2-24,0.3-36c-0.6,0-1.2,0-1.8,0C84.1,70.2,84,70.2,83.8,70.3z M80.6,106c0-11.9,0-23.8,0-35.6c-0.6,0-1.4,0-2.3,0
			C78.1,82.3,78,94.1,77.8,106C78.9,106,79.6,106,80.6,106z M88.7,106.4c0-12.1,0-24.1,0-36.1c-0.6,0-1.3,0-2.2,0
			c-0.5,12-0.6,24-0.2,36C87.1,106.3,87.9,106.3,88.7,106.4z M75.1,105.9C74.4,94,74.4,82.3,75,70.5c-0.9,0-1.6,0-2.4,0
			c-0.5,11.8-0.5,23.5,0,35.3C73.4,105.9,74.2,105.9,75.1,105.9z M81.1,70.4c-0.5,11.9-0.6,23.8-0.2,35.7c0.8,0,1.5,0,2.3,0
			c0-12,0-23.9,0-35.8c-0.5,0-1,0-1.6,0C81.5,70.3,81.3,70.3,81.1,70.4z M91.4,106.4c0-12.1,0-24.1,0-36.2c-0.6,0-1.3,0-2.1,0
			c0,0.5-0.1,1-0.1,1.5c-0.4,11-0.5,21.9-0.1,32.9C89.2,106.5,89.2,106.5,91.4,106.4z"/>
		<path class="st1" d="M99,22.3c-3.1,0-6.2-0.2-9.4-0.1C80.8,22.6,72,23,63.2,23.5c-3.1,0.2-6.1,0.7-9.1,1.1c-2,0.3-3.5,1.3-4.5,3.1
			c-4,6.8-7.5,13.8-10.6,21.1c-0.1,0.1-0.1,0.3-0.1,0.5c1-0.1,1.9-0.3,2.8-0.4c5.1-0.4,10.1-0.8,15.2-1c13.8-0.4,27.5-0.7,41.3-1.1
			c0.3,0,0.6,0,0.9,0c0,0.1,0,0.2,0,0.3c-2.3,0-4.6,0-6.9,0.1c-10.6,0.3-21.1,0.5-31.7,0.8c-5.4,0.2-10.8,0.5-16.1,0.8
			c-1.6,0.1-3.1,0.4-4.6,0.6c-0.4,0.1-0.8,0.1-1.3,0.2c0.1-0.3,0.1-0.5,0.2-0.7c3-7.2,6.5-14.1,10.4-20.9c1.5-2.5,3.5-3.7,6.3-3.9
			c5.4-0.5,10.9-1.1,16.3-1.5c8.7-0.6,17.4-0.9,26.2-0.7c0.4,0,0.9,0,1.3,0.1C99,22.1,99,22.2,99,22.3z"/>
		<path class="st1" d="M99,121.4c-3.9-0.1-7.7-0.2-11.6-0.3c-3.4-0.1-6.9-0.2-10.3-0.2c-0.8,0-1.7,0-2.5,0.1
			c-0.7,0.1-1.1-0.2-1.1-0.8c0-1.3,0.1-2.5,0.1-3.8c0-1.7-0.1-3.4-0.2-5.2c0-0.7,0.2-1.1,0.9-1.1c0.8,0,1.7-0.1,2.5-0.1
			c7.4,0,14.8,0.1,22.2,0.2c0,0.1,0,0.2,0,0.3c-7.6-0.1-15.1-0.1-22.7-0.2c-0.7,0-1.3,0.1-2,0.1c-0.5,0-0.6,0.3-0.6,0.8
			c0,2.3,0,4.7,0,7c0,0.2,0,0.4,0,0.6c-0.1,1.8,0,1.7,1.7,1.7c3.2,0,6.4,0.2,9.6,0.3c4.7,0.1,9.3,0.1,14,0.2
			C99,121.2,99,121.3,99,121.4z"/>
		<path class="st1" d="M99,61.2c-0.2,0-0.4,0-0.7,0c-0.9,0-1.1,0.3-1.2,1.1c0,1.2,0,2.3,0,3.5c0,1.7,0.1,1.8,1.8,1.7
			c0,0.1,0,0.2,0,0.3c-2,0-2.2-0.2-2.2-2.1c0-1,0-2.1,0-3.1c0-1.5,0.3-1.8,1.8-1.8c0.1,0,0.2,0,0.3,0C99,60.9,99,61,99,61.2z"/>
		<path class="st1" d="M38.8,70.1c4.7,0.1,9.4,0.2,14.1,0.2c0.6,0,1.2,0,1.8,0.1c1.3,0.1,1.9,0.7,2,1.9c0.1,0.5,0,1.1,0,1.6
			c-0.2,1.9-0.4,3.7-0.7,5.6c-0.1,0.8-0.4,1.5-0.7,2.2c-0.7,1.5-1.8,2.3-3.5,2.1c-7.8-0.6-15.6-1.1-23.4-1.7c-0.5,0-1-0.2-1.6-0.2
			c-2.6-0.4-4.2-1.9-4.7-4.5c-0.4-1.9-1-3.8-0.8-5.8c0.1-1.2,0.4-1.6,1.6-1.7c3.5-0.1,6.9-0.1,10.4-0.1c1.8,0,3.7,0,5.5,0
			C38.8,69.9,38.8,70,38.8,70.1z M38.9,70.4c0-0.1,0-0.2,0-0.3c-2.7,0-5.4,0-8.1,0c-2.5,0-4.9,0-7.4,0.1c-1.4,0-1.7,0.4-1.8,1.8
			c0,0.2,0,0.3,0,0.5c0.4,2.1,0.8,4.3,1.4,6.4c0.3,1.1,1.2,1.9,2.3,2.2c1.3,0.4,2.6,0.7,4,0.8c7.4,0.6,14.8,1,22.2,1.5
			c2.1,0.1,2.9-0.5,3.7-2.4c0.2-0.5,0.4-0.9,0.4-1.4c0.3-2.2,0.6-4.4,0.8-6.6c0.1-1.6-0.5-2.3-2.1-2.4c-0.4,0-0.8,0-1.2,0
			C48.4,70.6,43.6,70.5,38.9,70.4z"/>
		<path class="st1" d="M42.4,88.6c-2.4-0.1-4.9-0.2-7.3-0.4c-3.7-0.3-7.3-0.8-10.7-2.3c-2.7-1.1-4.3-2.9-4.6-5.8
			c-0.3-3.1-0.6-6.1-0.8-9.2c0.4,3.2,0.8,6.3,1.2,9.5c0.3,2.4,1.6,4,3.8,5c2.9,1.3,6,2,9.2,2.4C36.2,88.1,39.3,88.3,42.4,88.6
			C42.4,88.6,42.4,88.6,42.4,88.6z"/>
		<path class="st1" d="M38.6,71.6c4.2,0,8.4,0,12.6,0c0.8,0,1.7,0.1,2.5,0.2c1,0.2,1.4,0.6,1.4,1.6c-0.1,2.1-0.2,4.2-0.6,6.2
			c-0.4,2-1.4,2.6-3.4,2.5c-6.8-0.3-13.6-0.5-20.4-0.9c-1.3-0.1-2.5-0.4-3.8-0.7c-2.1-0.5-3.4-1.8-3.5-4c-0.1-1.3-0.2-2.6-0.1-3.9
			c0.1-1.2,0.4-1.5,1.7-1.5c4.6,0,9.1,0,13.7,0C38.6,71.4,38.6,71.5,38.6,71.6z M34.9,71.7c1.1,1.6,1.3,3.1,1.2,4.8
			c-0.2,2.1-1.2,3.5-2.9,3.9c-1.2,0.2-2.4,0.3-3.6,0.2c-1.7-0.1-3-1.1-3.7-2.7c-0.9-2.1-1.2-4.2,0.3-6.3c-0.5,0-0.9,0-1.3,0
			c-1.1,0.1-1.4,0.2-1.4,1.3c-0.1,1.2,0,2.5,0.1,3.7c0.2,2,1.3,3.3,3.2,3.7c1.8,0.4,3.6,0.7,5.4,0.8c6.3,0.3,12.6,0.5,18.9,0.8
			c1.7,0.1,2.6-0.5,3-2.2c0.3-1.5,0.5-3.1,0.6-4.7c0.2-2.6-0.1-2.9-2.7-3c-5.4-0.1-10.7-0.2-16.1-0.3C35.7,71.7,35.4,71.7,34.9,71.7
			z M30.8,80.5c0.8-0.2,1.8-0.2,2.5-0.5c0.7-0.3,1.4-0.9,1.8-1.5c1.1-2.1,1.1-4.2-0.3-6.3c-0.2-0.3-0.6-0.5-0.9-0.5
			c-2-0.1-4-0.1-6-0.1c-1.2,0-1.9,0.5-2.3,1.7C24.4,76.8,27,80.4,30.8,80.5z"/>
		<path class="st1" d="M45.5,77.5c-1.4,0-2.8,0-4.3,0c-0.8,0-1.7,0-2-0.9c-0.3-1-0.3-2.1,0.3-3c0.2-0.3,0.8-0.5,1.2-0.5
			c3,0.1,6,0.1,8.9,0.3c1.6,0.1,1.8,0.5,1.8,2.6c0,1.2-0.6,1.7-2,1.7c-1.3,0-2.7,0-4,0C45.5,77.6,45.5,77.6,45.5,77.5z M45.4,77.2
			c0,0,0,0.1,0,0.1c0.3,0,0.7,0,1,0c0.8,0,1.6,0,2.3,0c2.3,0,2.6-0.3,2.4-2.6c-0.1-0.7-0.4-1.1-1.1-1.1c-3.1-0.1-6.2-0.2-9.4-0.3
			c-0.3,0-0.9,0.2-0.9,0.4c-0.2,0.9-0.4,1.8-0.2,2.6c0.1,0.7,1,0.7,1.7,0.8C42.7,77.2,44,77.2,45.4,77.2z"/>
	</g>
</g>
</svg>
